<?xml version="1.0" encoding="UTF-8" standalone="no"?>
<!-- Created with Inkscape (http://www.inkscape.org/) -->
<svg
   xmlns:dc="http://purl.org/dc/elements/1.1/"
   xmlns:cc="http://web.resource.org/cc/"
   xmlns:rdf="http://www.w3.org/1999/02/22-rdf-syntax-ns#"
   xmlns:svg="http://www.w3.org/2000/svg"
   xmlns="http://www.w3.org/2000/svg"
   xmlns:sodipodi="http://sodipodi.sourceforge.net/DTD/sodipodi-0.dtd"
   xmlns:inkscape="http://www.inkscape.org/namespaces/inkscape"
   id="svg2367"
   sodipodi:version="0.32"
   inkscape:version="0.45.1"
   width="231.5063"
   height="326.58865"
   version="1.0"
   sodipodi:docbase="G:\SVG_Clipart\inwork"
   sodipodi:docname="steyer_high.svg"
   inkscape:output_extension="org.inkscape.output.svg.inkscape">
  <metadata
     id="metadata2372">
    <rdf:RDF>
      <cc:Work
         rdf:about="">
        <dc:format>image/svg+xml</dc:format>
        <dc:type
           rdf:resource="http://purl.org/dc/dcmitype/StillImage" />
      </cc:Work>
    </rdf:RDF>
  </metadata>
  <defs
     id="defs2370" />
  <sodipodi:namedview
     inkscape:window-height="975"
     inkscape:window-width="1280"
     inkscape:pageshadow="2"
     inkscape:pageopacity="0.0"
     guidetolerance="10.0"
     gridtolerance="10.0"
     objecttolerance="10.0"
     borderopacity="1.0"
     bordercolor="#666666"
     pagecolor="#ffffff"
     id="base"
     showguides="true"
     inkscape:guide-bbox="true"
     showgrid="true"
     inkscape:zoom="0.9126714"
     inkscape:cx="204.13751"
     inkscape:cy="151.53098"
     inkscape:window-x="-4"
     inkscape:window-y="-4"
     inkscape:current-layer="svg2367" />
  <path
     style="fill:#000000"
     d="M 11.117943,326.15359 C 6.00229,324.84012 2.2483684,322.63225 0.91215417,320.15105 C -0.28943791,317.91983 -0.29364961,317.50758 0.83903027,312.99834 C 1.5001082,310.36658 2.0409928,307.28383 2.0409928,306.14778 C 2.0409928,305.01174 2.3933672,303.72987 2.8240431,303.29919 C 3.2547262,302.86851 3.9048392,300.14491 4.2687523,297.24675 C 4.6326581,294.34858 5.231381,291.61298 5.5992443,291.16763 C 6.8022234,289.71125 8.6869758,281.09423 8.2143862,279.21127 C 7.9605294,278.19984 6.5197415,275.88266 5.0126265,274.06199 C 2.5168283,271.04694 2.3317239,270.52962 2.9372508,268.26193 C 3.3028994,266.89256 4.5579076,264.38291 5.7261546,262.68493 C 6.8944016,260.98693 7.8613292,259.32978 7.8748793,259.00235 C 7.8884293,258.67493 8.5308813,257.09995 9.3025532,255.50241 C 10.074224,253.90487 10.716676,252.17139 10.730226,251.65025 C 10.743776,251.1291 11.426791,249.22775 12.24803,247.42502 C 13.069269,245.62228 14.020323,241.80066 14.361478,238.93252 C 14.702633,236.06439 15.664565,232.34474 16.499093,230.66665 C 17.333627,228.98854 18.016425,227.28956 18.016425,226.89113 C 18.016425,226.49269 19.078428,225.17418 20.376432,223.96108 C 22.352353,222.11442 22.736439,221.2316 22.736439,218.53661 C 22.736439,216.14043 22.29206,214.84474 20.997716,213.46697 L 19.259001,211.61619 L 20.177755,200.15612 C 20.683073,193.85309 21.710576,186.19083 22.461095,183.1289 C 23.211613,180.06696 23.825673,176.55063 23.825673,175.31481 C 23.825673,173.00892 25.998898,167.62071 28.253532,164.33654 C 28.951564,163.31977 30.088383,160.36487 30.779793,157.7701 C 31.881705,153.63474 31.91065,152.78723 31.014232,150.9049 C 30.451759,149.72382 29.257777,148.43491 28.360931,148.04067 C 27.455538,147.64267 26.725802,146.67377 26.720196,145.8622 C 26.714641,145.05829 27.869592,139.66237 29.286758,133.87128 C 30.703924,128.08018 32.189254,121.90997 32.587493,120.15969 C 33.031486,118.20833 34.411103,115.72823 36.154102,113.74807 C 38.250718,111.36619 39.218982,109.43824 39.843919,106.40113 C 40.309922,104.13643 41.008789,101.21432 41.396956,99.907561 C 41.785123,98.6008 42.035479,94.516172 41.953308,90.830611 C 41.871128,87.14505 42.229029,80.53512 42.748637,76.141876 C 43.268238,71.748633 43.730509,63.90615 43.775901,58.714135 C 43.875196,47.356605 44.397476,45.904532 50.605798,39.725279 C 56.149243,34.207786 59.261483,32.61054 63.231842,33.245426 C 66.391333,33.750649 72.624917,32.118098 74.810792,30.212947 C 76.495024,28.745023 77.486466,25.474457 77.882751,20.079212 C 78.597703,10.345294 81.520168,4.3415086 86.627274,2.1148239 C 90.119075,0.59240886 97.963906,-0.44614672 101.16129,0.19069936 C 108.42593,1.6376595 110.18697,2.5561452 112.30797,6.004326 C 115.62969,11.404552 117.74872,18.692515 117.26165,23.041494 C 116.90193,26.253415 117.08518,27.05899 118.5993,28.9219 L 120.35377,31.080522 L 118.79117,32.743833 C 117.84261,33.753532 117.49588,34.655076 117.9088,35.038087 C 118.96826,36.020779 145.57161,36.829419 146.14821,35.896461 C 146.68252,35.031929 143.34513,30.312126 141.50202,29.325723 C 140.84872,28.976086 136.32465,28.586213 131.44855,28.459331 L 122.58289,28.228646 L 122.58254,25.680572 L 122.58219,23.132488 L 141.64414,23.078753 C 152.12821,23.049206 161.52302,22.885821 162.52148,22.715675 C 164.17823,22.433367 164.35742,22.660153 164.57203,25.310956 C 164.70137,26.908502 165.33767,28.80268 165.98602,29.520245 C 167.95577,31.70026 171.52056,33.060728 173.47753,32.37931 C 175.95301,31.517356 180.04752,32.338014 180.78172,33.843292 C 181.12262,34.542217 181.68099,35.685913 182.02254,36.384838 C 182.90325,38.187033 194.91903,38.900997 215.34933,38.365087 L 231.5063,37.941273 L 231.5063,40.138004 L 231.5063,42.334742 L 211.71855,41.88006 C 193.84934,41.469462 191.83417,41.541852 190.93419,42.626657 C 190.21273,43.496287 188.75296,43.827937 185.64677,43.827937 C 182.30059,43.827937 181.25304,44.096142 180.88846,45.046216 C 180.59099,45.821387 180.92943,46.602223 181.81894,47.19306 C 186.13479,50.059735 186.15224,50.086116 185.06997,52.108366 C 184.15929,53.809982 184.20701,54.162749 185.54642,55.6306 C 186.9373,57.154853 186.98115,57.608635 186.21515,62.550591 C 185.51761,67.050856 185.12473,67.974258 183.58,68.744172 C 180.87523,70.092249 179.64889,73.285164 179.79313,78.603683 C 179.93368,83.786092 178.27757,95.218256 176.7654,99.504203 C 176.22236,101.04336 175.55307,103.60544 175.2781,105.19771 C 174.77523,108.10967 173.49487,110.16947 167.75827,117.29539 C 166.04557,119.42287 163.81061,122.24477 162.7917,123.56625 C 161.77278,124.88773 160.23314,126.29054 159.37029,126.6836 C 158.50743,127.07664 157.00774,127.85196 156.03763,128.40651 C 155.06752,128.96107 151.90765,129.63652 149.01568,129.90752 C 143.05369,130.4662 137.70315,129.37309 131.54551,126.33838 C 129.4857,125.32323 126.9842,124.28781 125.98665,124.03743 C 124.9891,123.78706 123.43143,122.79294 122.52518,121.82826 C 121.61891,120.8636 120.42467,120.07431 119.8713,120.07431 C 118.49017,120.07431 110.94512,112.84338 110.14903,110.7568 C 109.08481,107.96745 107.73096,109.39281 107.1632,113.90035 C 106.86978,116.22988 105.97117,120.53627 105.16627,123.47012 C 104.36138,126.40397 103.70284,129.50726 103.70284,130.36632 C 103.70284,131.22538 103.14666,133.69265 102.46688,135.84915 C 101.38873,139.26944 101.36243,139.97293 102.26087,141.35914 C 102.93504,142.39931 103.42468,145.95859 103.67837,151.66315 L 104.06591,160.37807 L 107.51069,164.73396 C 109.40532,167.1297 111.82032,170.15708 112.87735,171.46148 C 114.72618,173.74297 114.75042,173.88704 113.51498,175.25219 C 112.33934,176.55124 112.32364,176.8727 113.32938,179.05289 C 116.21516,185.30858 116.44542,186.75501 114.98671,189.46368 C 113.94063,191.40614 113.81904,192.20424 114.47002,192.85522 C 114.93824,193.32344 115.32133,195.31711 115.32133,197.2856 C 115.32133,201.18629 118.52979,211.84531 120.35509,214.0086 C 121.26228,215.08377 121.44848,216.85793 121.27135,222.73913 C 121.05659,229.87002 121.11262,230.17999 122.92395,231.88165 C 126.52341,235.26318 126.76306,236.54216 127.0345,253.81983 L 127.2891,270.02553 L 125.29907,271.98945 C 122.88075,274.37605 122.63279,278.64488 124.55777,284.75161 C 125.60578,288.07629 126.70393,289.54549 131.39005,293.89239 C 135.4579,297.66578 138.02647,299.42762 140.85214,300.38265 C 154.55792,305.01497 156.30765,309.5941 146.21934,314.42878 C 143.30822,315.8239 140.04744,316.84909 138.57882,316.83097 C 133.88697,316.77305 129.7667,315.60686 127.79805,313.7796 C 125.37951,311.53475 119.70923,309.60103 115.5452,309.60103 C 113.81369,309.60103 111.82959,309.30942 111.13608,308.95301 C 110.44257,308.5966 108.99418,307.9581 107.91741,307.53411 C 105.21202,306.46886 104.67225,303.05549 106.22814,296.85155 C 108.53983,287.63393 107.66337,279.43907 104.18766,277.77321 C 103.07855,277.24162 101.72606,275.77109 101.18215,274.50534 C 100.63823,273.2396 99.717866,271.0603 99.136894,269.66245 C 98.555919,268.2646 97.681627,264.08814 97.19402,260.38141 C 96.706414,256.67469 95.84597,252.71683 95.281914,251.58615 C 94.323577,249.66513 93.203895,245.33567 92.350959,240.25313 C 92.149887,239.05498 91.695495,237.42112 91.341196,236.62235 C 88.955752,231.24429 87.000577,225.94362 86.996771,224.8442 C 86.99431,224.13324 86.54169,222.68792 85.990951,221.63239 C 85.440205,220.57685 84.282698,217.63591 83.418703,215.09698 C 82.554715,212.55804 81.075594,208.84689 80.131765,206.84996 C 79.187944,204.85303 78.219855,202.72902 77.98047,202.12994 C 77.741085,201.53086 76.919164,200.0604 76.153984,198.86224 C 75.388797,197.66408 74.738859,195.99918 74.709667,195.16247 C 74.655641,193.61392 72.5828,191.2376 71.286031,191.2376 C 70.088418,191.2376 66.883841,195.11271 66.408876,197.13525 C 66.162985,198.18234 64.812052,200.63312 63.406802,202.58142 C 62.001552,204.52973 60.642021,206.61396 60.385623,207.21303 C 60.129225,207.81211 59.351069,209.60935 58.656377,211.20689 C 57.961685,212.80444 57.15518,215.25521 56.864144,216.65306 C 56.573108,218.05091 56.090258,219.52138 55.791147,219.92076 C 55.492029,220.32015 54.359625,223.58785 53.274697,227.18232 C 52.189762,230.7768 51.003818,234.37127 50.639266,235.17004 C 49.384657,237.91901 47.148489,241.52057 45.738142,243.06376 C 44.960893,243.91423 44.080008,245.41458 43.780628,246.39788 C 43.481241,247.38117 42.487025,248.77506 41.571262,249.4954 C 39.859241,250.84208 38.827075,253.39048 37.995481,258.324 C 37.733891,259.87587 36.889451,262.3218 36.118942,263.75941 C 35.348432,265.19702 34.718013,267.11775 34.718013,268.0277 C 34.718013,268.93765 34.407073,270.24957 34.027032,270.94308 C 33.646998,271.63659 32.77996,273.45653 32.100286,274.9874 C 31.420611,276.51826 30.179392,278.07527 29.342026,278.44741 C 25.776767,280.03189 23.398831,281.87806 22.473229,283.78019 C 20.998769,286.81021 19.968601,301.70193 20.973441,305.46048 C 21.422111,307.13871 22.083595,308.87153 22.443413,309.31121 C 24.375598,311.67227 23.620664,323.6468 21.425771,325.4527 C 20.055805,326.57987 14.301977,326.9711 11.117943,326.15359 z M 158.42969,125.1047 C 159.48202,124.27694 160.34301,123.19438 160.34301,122.69901 C 160.34301,122.20364 161.32332,120.85914 162.52148,119.71124 C 163.71964,118.56333 164.69995,117.32398 164.69995,116.95712 C 164.69995,116.59026 165.55171,115.27785 166.59275,114.04065 C 172.02727,107.58208 177.70191,86.552216 175.34966,81.588046 C 173.98678,78.711815 171.85756,78.937788 169.20356,82.240338 C 167.92473,83.831665 166.87842,85.45214 166.87842,85.841382 C 166.87842,86.23063 165.54699,87.603603 163.91971,88.892442 C 161.0823,91.139714 156.20941,92.716685 152.3553,92.634934 C 151.35683,92.61376 149.77744,93.305554 148.84554,94.172257 C 147.25988,95.646993 146.51982,95.737944 137.31012,95.589983 C 129.42313,95.463276 127.21142,95.19873 126.17157,94.257675 C 125.45795,93.611861 123.53785,92.904236 121.90468,92.685184 C 119.92077,92.419084 118.23818,91.573897 116.83484,90.138526 C 113.37081,86.595437 112.1202,87.518468 111.68482,93.939597 C 111.48198,96.9312 110.69758,100.94352 109.94171,102.85587 L 108.56741,106.33288 L 110.3598,108.30204 C 111.34561,109.38509 112.69821,111.15276 113.36558,112.23022 C 114.8358,114.60388 118.08534,116.15623 122.94597,116.80692 C 124.9429,117.07425 128.53737,118.19637 130.93369,119.30052 C 133.33001,120.40467 136.54995,121.87883 138.08912,122.57643 C 147.57713,126.8767 155.00347,127.79977 158.42969,125.1047 z M 158.16454,66.724463 C 162.6811,63.707888 169.78304,57.006797 169.78304,55.76173 C 169.78304,55.308775 170.78691,53.552364 172.01387,51.858605 C 174.62192,48.258302 174.37294,46.732561 171.17738,46.732561 C 169.56804,46.732561 167.84709,47.610222 165.33918,49.709953 C 160.63671,53.647091 148.52321,68.330205 149.1461,69.338056 C 149.97617,70.68114 153.97597,69.521977 158.16454,66.724463 z M 146.2812,67.355188 C 148.14798,66.854256 161.43225,51.401134 161.43225,49.730503 C 161.43225,48.935733 160.44557,48.346304 158.38893,47.912448 C 154.17829,47.024192 153.0009,47.600564 153.53819,50.287036 C 153.9518,52.355078 153.85349,52.454009 151.16556,52.674673 C 148.50998,52.892687 148.37066,53.02593 148.53559,55.190042 C 148.64825,56.668277 148.32773,57.621778 147.6279,57.890332 C 147.03288,58.118665 146.54605,58.96927 146.54605,59.780582 C 146.54605,60.591887 146.23461,61.255681 145.85396,61.255681 C 144.87317,61.255681 142.68828,66.110179 143.25578,67.028425 C 143.79306,67.897757 144.12544,67.933658 146.2812,67.355188 z M 124.96622,54.394145 C 128.27626,52.903522 131.57222,49.944182 130.98341,48.991472 C 130.28715,47.864892 128.20612,47.986284 126.534,49.251015 C 125.75874,49.837386 124.56012,50.327541 123.8704,50.340249 C 122.3902,50.367509 120.07218,53.595214 120.74777,54.68834 C 121.37413,55.701814 122.18857,55.645015 124.96622,54.394145 z M 166.2,36.540831 C 168.25643,35.440254 167.93635,33.144461 165.55476,31.912893 C 164.42736,31.329891 163.08026,30.341187 162.56122,29.715777 C 161.82195,28.825016 160.07285,28.578661 154.4877,28.578661 C 150.31759,28.578661 147.16343,28.893355 146.88939,29.336753 C 146.39051,30.143948 147.95994,32.970568 150.39951,35.658682 C 151.72514,37.119366 152.56661,37.292533 158.33886,37.292533 C 161.88997,37.292533 165.42748,36.954267 166.2,36.540831 z "
     id="path2376"
     sodipodi:nodetypes="cssssssssssssssssssscccssssssssssssssssssssssscccssscccccsssssscccccsssssssssssssssssssssssssscccssssssssscccssssssssssssssssssssssssssssssssssssssssssssssccssssssssssssssscccssssccsssssccsssssssssccssssccssssssc" />
  <path
     sodipodi:nodetypes="cssssssssssssssssssscccssssssssssssssssssssssscccssscccccsssssscccccsssssssssssssssssssssssssscccssssssssscccssssssssssssssssssssssssssssssssssssssssssssssccssssssssssssssscccssssccsssssccsssssssssccssssccssssssc"
     id="path7331"
     d="M 11.117943,326.15359 C 6.00229,324.84012 2.2483684,322.63225 0.91215417,320.15105 C -0.28943791,317.91983 -0.29364961,317.50758 0.83903027,312.99834 C 1.5001082,310.36658 2.0409928,307.28383 2.0409928,306.14778 C 2.0409928,305.01174 2.3933672,303.72987 2.8240431,303.29919 C 3.2547262,302.86851 3.9048392,300.14491 4.2687523,297.24675 C 4.6326581,294.34858 5.231381,291.61298 5.5992443,291.16763 C 6.8022234,289.71125 8.6869758,281.09423 8.2143862,279.21127 C 7.9605294,278.19984 6.5197415,275.88266 5.0126265,274.06199 C 2.5168283,271.04694 2.3317239,270.52962 2.9372508,268.26193 C 3.3028994,266.89256 4.5579076,264.38291 5.7261546,262.68493 C 6.8944016,260.98693 7.8613292,259.32978 7.8748793,259.00235 C 7.8884293,258.67493 8.5308813,257.09995 9.3025532,255.50241 C 10.074224,253.90487 10.716676,252.17139 10.730226,251.65025 C 10.743776,251.1291 11.426791,249.22775 12.24803,247.42502 C 13.069269,245.62228 14.020323,241.80066 14.361478,238.93252 C 14.702633,236.06439 15.664565,232.34474 16.499093,230.66665 C 17.333627,228.98854 18.016425,227.28956 18.016425,226.89113 C 18.016425,226.49269 19.078428,225.17418 20.376432,223.96108 C 22.352353,222.11442 22.736439,221.2316 22.736439,218.53661 C 22.736439,216.14043 22.29206,214.84474 20.997716,213.46697 L 19.259001,211.61619 L 20.177755,200.15612 C 20.683073,193.85309 21.710576,186.19083 22.461095,183.1289 C 23.211613,180.06696 23.825673,176.55063 23.825673,175.31481 C 23.825673,173.00892 25.998898,167.62071 28.253532,164.33654 C 28.951564,163.31977 30.088383,160.36487 30.779793,157.7701 C 31.881705,153.63474 31.91065,152.78723 31.014232,150.9049 C 30.451759,149.72382 29.257777,148.43491 28.360931,148.04067 C 27.455538,147.64267 26.725802,146.67377 26.720196,145.8622 C 26.714641,145.05829 27.869592,139.66237 29.286758,133.87128 C 30.703924,128.08018 32.189254,121.90997 32.587493,120.15969 C 33.031486,118.20833 34.411103,115.72823 36.154102,113.74807 C 38.250718,111.36619 39.218982,109.43824 39.843919,106.40113 C 40.309922,104.13643 41.008789,101.21432 41.396956,99.907561 C 41.785123,98.6008 42.035479,94.516172 41.953308,90.830611 C 41.871128,87.14505 42.229029,80.53512 42.748637,76.141876 C 43.268238,71.748633 43.730509,63.90615 43.775901,58.714135 C 43.875196,47.356605 44.397476,45.904532 50.605798,39.725279 C 56.149243,34.207786 59.261483,32.61054 63.231842,33.245426 C 66.391333,33.750649 72.624917,32.118098 74.810792,30.212947 C 76.495024,28.745023 77.486466,25.474457 77.882751,20.079212 C 78.597703,10.345294 81.520168,4.3415086 86.627274,2.1148239 C 90.119075,0.59240886 97.963906,-0.44614672 101.16129,0.19069936 C 108.42593,1.6376595 110.18697,2.5561452 112.30797,6.004326 C 115.62969,11.404552 117.74872,18.692515 117.26165,23.041494 C 116.90193,26.253415 117.08518,27.05899 118.5993,28.9219 L 120.35377,31.080522 L 118.79117,32.743833 C 117.84261,33.753532 117.49588,34.655076 117.9088,35.038087 C 118.96826,36.020779 145.57161,36.829419 146.14821,35.896461 C 146.68252,35.031929 143.34513,30.312126 141.50202,29.325723 C 140.84872,28.976086 136.32465,28.586213 131.44855,28.459331 L 122.58289,28.228646 L 122.58254,25.680572 L 122.58219,23.132488 L 141.64414,23.078753 C 152.12821,23.049206 161.52302,22.885821 162.52148,22.715675 C 164.17823,22.433367 164.35742,22.660153 164.57203,25.310956 C 164.70137,26.908502 165.33767,28.80268 165.98602,29.520245 C 167.95577,31.70026 171.52056,33.060728 173.47753,32.37931 C 175.95301,31.517356 180.04752,32.338014 180.78172,33.843292 C 181.12262,34.542217 181.68099,35.685913 182.02254,36.384838 C 182.90325,38.187033 194.91903,38.900997 215.34933,38.365087 L 231.5063,37.941273 L 231.5063,40.138004 L 231.5063,42.334742 L 211.71855,41.88006 C 193.84934,41.469462 191.83417,41.541852 190.93419,42.626657 C 190.21273,43.496287 188.75296,43.827937 185.64677,43.827937 C 182.30059,43.827937 181.25304,44.096142 180.88846,45.046216 C 180.59099,45.821387 180.92943,46.602223 181.81894,47.19306 C 186.13479,50.059735 186.15224,50.086116 185.06997,52.108366 C 184.15929,53.809982 184.20701,54.162749 185.54642,55.6306 C 186.9373,57.154853 186.98115,57.608635 186.21515,62.550591 C 185.51761,67.050856 185.12473,67.974258 183.58,68.744172 C 180.87523,70.092249 179.64889,73.285164 179.79313,78.603683 C 179.93368,83.786092 178.27757,95.218256 176.7654,99.504203 C 176.22236,101.04336 175.55307,103.60544 175.2781,105.19771 C 174.77523,108.10967 173.49487,110.16947 167.75827,117.29539 C 166.04557,119.42287 163.81061,122.24477 162.7917,123.56625 C 161.77278,124.88773 160.23314,126.29054 159.37029,126.6836 C 158.50743,127.07664 157.00774,127.85196 156.03763,128.40651 C 155.06752,128.96107 151.90765,129.63652 149.01568,129.90752 C 143.05369,130.4662 137.70315,129.37309 131.54551,126.33838 C 129.4857,125.32323 126.9842,124.28781 125.98665,124.03743 C 124.9891,123.78706 123.43143,122.79294 122.52518,121.82826 C 121.61891,120.8636 120.42467,120.07431 119.8713,120.07431 C 118.49017,120.07431 110.94512,112.84338 110.14903,110.7568 C 109.08481,107.96745 107.73096,109.39281 107.1632,113.90035 C 106.86978,116.22988 105.97117,120.53627 105.16627,123.47012 C 104.36138,126.40397 103.70284,129.50726 103.70284,130.36632 C 103.70284,131.22538 103.14666,133.69265 102.46688,135.84915 C 101.38873,139.26944 101.36243,139.97293 102.26087,141.35914 C 102.93504,142.39931 103.42468,145.95859 103.67837,151.66315 L 104.06591,160.37807 L 107.51069,164.73396 C 109.40532,167.1297 111.82032,170.15708 112.87735,171.46148 C 114.72618,173.74297 114.75042,173.88704 113.51498,175.25219 C 112.33934,176.55124 112.32364,176.8727 113.32938,179.05289 C 116.21516,185.30858 116.44542,186.75501 114.98671,189.46368 C 113.94063,191.40614 113.81904,192.20424 114.47002,192.85522 C 114.93824,193.32344 115.32133,195.31711 115.32133,197.2856 C 115.32133,201.18629 118.52979,211.84531 120.35509,214.0086 C 121.26228,215.08377 121.44848,216.85793 121.27135,222.73913 C 121.05659,229.87002 121.11262,230.17999 122.92395,231.88165 C 126.52341,235.26318 126.76306,236.54216 127.0345,253.81983 L 127.2891,270.02553 L 125.29907,271.98945 C 122.88075,274.37605 122.63279,278.64488 124.55777,284.75161 C 125.60578,288.07629 126.70393,289.54549 131.39005,293.89239 C 135.4579,297.66578 138.02647,299.42762 140.85214,300.38265 C 154.55792,305.01497 156.30765,309.5941 146.21934,314.42878 C 143.30822,315.8239 140.04744,316.84909 138.57882,316.83097 C 133.88697,316.77305 129.7667,315.60686 127.79805,313.7796 C 125.37951,311.53475 119.70923,309.60103 115.5452,309.60103 C 113.81369,309.60103 111.82959,309.30942 111.13608,308.95301 C 110.44257,308.5966 108.99418,307.9581 107.91741,307.53411 C 105.21202,306.46886 104.67225,303.05549 106.22814,296.85155 C 108.53983,287.63393 107.66337,279.43907 104.18766,277.77321 C 103.07855,277.24162 101.72606,275.77109 101.18215,274.50534 C 100.63823,273.2396 99.717866,271.0603 99.136894,269.66245 C 98.555919,268.2646 97.681627,264.08814 97.19402,260.38141 C 96.706414,256.67469 95.84597,252.71683 95.281914,251.58615 C 94.323577,249.66513 93.203895,245.33567 92.350959,240.25313 C 92.149887,239.05498 91.695495,237.42112 91.341196,236.62235 C 88.955752,231.24429 87.000577,225.94362 86.996771,224.8442 C 86.99431,224.13324 86.54169,222.68792 85.990951,221.63239 C 85.440205,220.57685 84.282698,217.63591 83.418703,215.09698 C 82.554715,212.55804 81.075594,208.84689 80.131765,206.84996 C 79.187944,204.85303 78.219855,202.72902 77.98047,202.12994 C 77.741085,201.53086 76.919164,200.0604 76.153984,198.86224 C 75.388797,197.66408 74.738859,195.99918 74.709667,195.16247 C 74.655641,193.61392 72.5828,191.2376 71.286031,191.2376 C 70.088418,191.2376 66.883841,195.11271 66.408876,197.13525 C 66.162985,198.18234 64.812052,200.63312 63.406802,202.58142 C 62.001552,204.52973 60.642021,206.61396 60.385623,207.21303 C 60.129225,207.81211 59.351069,209.60935 58.656377,211.20689 C 57.961685,212.80444 57.15518,215.25521 56.864144,216.65306 C 56.573108,218.05091 56.090258,219.52138 55.791147,219.92076 C 55.492029,220.32015 54.359625,223.58785 53.274697,227.18232 C 52.189762,230.7768 51.003818,234.37127 50.639266,235.17004 C 49.384657,237.91901 47.148489,241.52057 45.738142,243.06376 C 44.960893,243.91423 44.080008,245.41458 43.780628,246.39788 C 43.481241,247.38117 42.487025,248.77506 41.571262,249.4954 C 39.859241,250.84208 38.827075,253.39048 37.995481,258.324 C 37.733891,259.87587 36.889451,262.3218 36.118942,263.75941 C 35.348432,265.19702 34.718013,267.11775 34.718013,268.0277 C 34.718013,268.93765 34.407073,270.24957 34.027032,270.94308 C 33.646998,271.63659 32.77996,273.45653 32.100286,274.9874 C 31.420611,276.51826 30.179392,278.07527 29.342026,278.44741 C 25.776767,280.03189 23.398831,281.87806 22.473229,283.78019 C 20.998769,286.81021 19.968601,301.70193 20.973441,305.46048 C 21.422111,307.13871 22.083595,308.87153 22.443413,309.31121 C 24.375598,311.67227 23.620664,323.6468 21.425771,325.4527 C 20.055805,326.57987 14.301977,326.9711 11.117943,326.15359 z M 158.42969,125.1047 C 159.48202,124.27694 160.34301,123.19438 160.34301,122.69901 C 160.34301,122.20364 161.32332,120.85914 162.52148,119.71124 C 163.71964,118.56333 164.69995,117.32398 164.69995,116.95712 C 164.69995,116.59026 165.55171,115.27785 166.59275,114.04065 C 172.02727,107.58208 177.70191,86.552216 175.34966,81.588046 C 173.98678,78.711815 171.85756,78.937788 169.20356,82.240338 C 167.92473,83.831665 166.87842,85.45214 166.87842,85.841382 C 166.87842,86.23063 165.54699,87.603603 163.91971,88.892442 C 161.0823,91.139714 156.20941,92.716685 152.3553,92.634934 C 151.35683,92.61376 149.77744,93.305554 148.84554,94.172257 C 147.25988,95.646993 146.51982,95.737944 137.31012,95.589983 C 129.42313,95.463276 127.21142,95.19873 126.17157,94.257675 C 125.45795,93.611861 123.53785,92.904236 121.90468,92.685184 C 119.92077,92.419084 118.23818,91.573897 116.83484,90.138526 C 113.37081,86.595437 112.1202,87.518468 111.68482,93.939597 C 111.48198,96.9312 110.69758,100.94352 109.94171,102.85587 L 108.56741,106.33288 L 110.3598,108.30204 C 111.34561,109.38509 112.69821,111.15276 113.36558,112.23022 C 114.8358,114.60388 118.08534,116.15623 122.94597,116.80692 C 124.9429,117.07425 128.53737,118.19637 130.93369,119.30052 C 133.33001,120.40467 136.54995,121.87883 138.08912,122.57643 C 147.57713,126.8767 155.00347,127.79977 158.42969,125.1047 z M 158.16454,66.724463 C 162.6811,63.707888 169.78304,57.006797 169.78304,55.76173 C 169.78304,55.308775 170.78691,53.552364 172.01387,51.858605 C 174.62192,48.258302 174.37294,46.732561 171.17738,46.732561 C 169.56804,46.732561 167.84709,47.610222 165.33918,49.709953 C 160.63671,53.647091 148.52321,68.330205 149.1461,69.338056 C 149.97617,70.68114 153.97597,69.521977 158.16454,66.724463 z M 146.2812,67.355188 C 148.14798,66.854256 161.43225,51.401134 161.43225,49.730503 C 161.43225,48.935733 160.44557,48.346304 158.38893,47.912448 C 154.17829,47.024192 153.0009,47.600564 153.53819,50.287036 C 153.9518,52.355078 153.85349,52.454009 151.16556,52.674673 C 148.50998,52.892687 148.37066,53.02593 148.53559,55.190042 C 148.64825,56.668277 148.32773,57.621778 147.6279,57.890332 C 147.03288,58.118665 146.54605,58.96927 146.54605,59.780582 C 146.54605,60.591887 146.23461,61.255681 145.85396,61.255681 C 144.87317,61.255681 142.68828,66.110179 143.25578,67.028425 C 143.79306,67.897757 144.12544,67.933658 146.2812,67.355188 z M 124.96622,54.394145 C 128.27626,52.903522 131.57222,49.944182 130.98341,48.991472 C 130.28715,47.864892 128.20612,47.986284 126.534,49.251015 C 125.75874,49.837386 124.56012,50.327541 123.8704,50.340249 C 122.3902,50.367509 120.07218,53.595214 120.74777,54.68834 C 121.37413,55.701814 122.18857,55.645015 124.96622,54.394145 z M 166.2,36.540831 C 168.25643,35.440254 167.93635,33.144461 165.55476,31.912893 C 164.42736,31.329891 163.08026,30.341187 162.56122,29.715777 C 161.82195,28.825016 160.07285,28.578661 154.4877,28.578661 C 150.31759,28.578661 147.16343,28.893355 146.88939,29.336753 C 146.39051,30.143948 147.95994,32.970568 150.39951,35.658682 C 151.72514,37.119366 152.56661,37.292533 158.33886,37.292533 C 161.88997,37.292533 165.42748,36.954267 166.2,36.540831 z "
     style="fill:#000000" />
</svg>
